<svg width="48" height="49" viewBox="0 0 48 49" fill="none" xmlns="http://www.w3.org/2000/svg">
<path d="M24.0141 4.66159C30.4303 4.66159 31.1902 4.68972 33.7135 4.80224C36.0586 4.90538 37.325 5.29921 38.1692 5.6274C39.2855 6.05873 40.0922 6.58384 40.9271 7.41838C41.7714 8.26229 42.2873 9.05932 42.7188 10.1752C43.0471 11.0191 43.4411 12.2943 43.5443 14.6292C43.6568 17.1609 43.685 17.9204 43.685 24.3248C43.685 30.7386 43.6568 31.4981 43.5443 34.0205C43.4411 36.3647 43.0471 37.6305 42.7188 38.4744C42.2873 39.5903 41.762 40.3967 40.9271 41.2312C40.0829 42.0751 39.2855 42.5909 38.1692 43.0222C37.325 43.3504 36.0492 43.7442 33.7135 43.8474C31.1808 43.9599 30.421 43.988 24.0141 43.988C17.5978 43.988 16.838 43.9599 14.3146 43.8474C11.9695 43.7442 10.7031 43.3504 9.8589 43.0222C8.74262 42.5909 7.9359 42.0658 7.10104 41.2312C6.25679 40.3873 5.74086 39.5903 5.30936 38.4744C4.98104 37.6305 4.58706 36.3553 4.48388 34.0205C4.37131 31.4887 4.34317 30.7292 4.34317 24.3248C4.34317 17.9111 4.37131 17.1515 4.48388 14.6292C4.58706 12.285 4.98104 11.0191 5.30936 10.1752C5.74086 9.05932 6.26617 8.25291 7.10104 7.41838C7.94528 6.57446 8.74262 6.05873 9.8589 5.6274C10.7031 5.29921 11.9789 4.90538 14.3146 4.80224C16.838 4.68972 17.5978 4.66159 24.0141 4.66159ZM24.0141 0.338867C17.4946 0.338867 16.6785 0.366998 14.1176 0.47952C11.5662 0.592042 9.812 1.00462 8.29236 1.59536C6.70705 2.21423 5.36564 3.03002 4.03361 4.3709C2.6922 5.70241 1.8761 7.0433 1.25699 8.61861C0.666015 10.147 0.253273 11.8911 0.140707 14.4416C0.0281415 17.0109 0 17.8267 0 24.3436C0 30.8605 0.0281415 31.6762 0.140707 34.2361C0.253273 36.7866 0.666015 38.5401 1.25699 40.0591C1.8761 41.6438 2.6922 42.9847 4.03361 44.3162C5.36564 45.6477 6.70706 46.4729 8.28298 47.0824C9.812 47.6731 11.5568 48.0857 14.1083 48.1982C16.6691 48.3107 17.4852 48.3389 24.0047 48.3389C30.5241 48.3389 31.3402 48.3107 33.9011 48.1982C36.4526 48.0857 38.2068 47.6731 39.7264 47.0824C41.3023 46.4729 42.6437 45.6477 43.9758 44.3162C45.3078 42.9847 46.1333 41.6438 46.743 40.0685C47.334 38.5401 47.7467 36.796 47.8593 34.2455C47.9719 31.6856 48 30.8698 48 24.3529C48 17.836 47.9719 17.0203 47.8593 14.4604C47.7467 11.9099 47.334 10.1564 46.743 8.63736C46.152 7.0433 45.3359 5.70241 43.9945 4.3709C42.6625 3.03939 41.3211 2.21423 39.7452 1.60474C38.2161 1.014 36.4714 0.601418 33.9199 0.488897C31.3496 0.366998 30.5335 0.338867 24.0141 0.338867Z" fill="#1D1D1F" fill-opacity="0.72"/>
<path d="M24.0141 12.013C17.2038 12.013 11.6787 17.536 11.6787 24.3436C11.6787 31.1511 17.2038 36.6741 24.0141 36.6741C30.8243 36.6741 36.3494 31.1511 36.3494 24.3436C36.3494 17.536 30.8243 12.013 24.0141 12.013ZM24.0141 32.342C19.5959 32.342 16.0125 28.76 16.0125 24.3436C16.0125 19.9271 19.5959 16.3451 24.0141 16.3451C28.4323 16.3451 32.0156 19.9271 32.0156 24.3436C32.0156 28.76 28.4323 32.342 24.0141 32.342Z" fill="#1D1D1F" fill-opacity="0.72"/>
<path d="M39.717 11.5255C39.717 13.1195 38.4225 14.4042 36.8372 14.4042C35.2425 14.4042 33.9574 13.1101 33.9574 11.5255C33.9574 9.9314 35.2519 8.64677 36.8372 8.64677C38.4225 8.64677 39.717 9.94077 39.717 11.5255Z" fill="#1D1D1F" fill-opacity="0.72"/>
</svg>
