<svg width="48" height="49" viewBox="0 0 48 49" fill="none" xmlns="http://www.w3.org/2000/svg">
<path d="M44.4567 0.338867H3.54333C2.60358 0.338867 1.70232 0.712182 1.03782 1.37669C0.373315 2.04119 0 2.94245 0 3.8822V44.7955C0 45.7353 0.373315 46.6365 1.03782 47.3011C1.70232 47.9656 2.60358 48.3389 3.54333 48.3389H44.4567C45.3964 48.3389 46.2977 47.9656 46.9622 47.3011C47.6267 46.6365 48 45.7353 48 44.7955V3.8822C48 2.94245 47.6267 2.04119 46.9622 1.37669C46.2977 0.712182 45.3964 0.338867 44.4567 0.338867ZM14.3067 41.2289H7.09V18.3055H14.3067V41.2289ZM10.6933 15.1289C9.87473 15.1243 9.07583 14.8773 8.39747 14.419C7.71911 13.9608 7.19168 13.3119 6.88175 12.5542C6.57183 11.7966 6.4933 10.9641 6.65606 10.1618C6.81883 9.3595 7.2156 8.62342 7.79631 8.04643C8.37702 7.46944 9.11563 7.0774 9.91893 6.91979C10.7222 6.76218 11.5542 6.84605 12.3099 7.16084C13.0656 7.47562 13.7111 8.0072 14.1649 8.68849C14.6188 9.36978 14.8606 10.1702 14.86 10.9889C14.8677 11.5369 14.765 12.0809 14.558 12.5885C14.351 13.096 14.044 13.5567 13.6551 13.943C13.2663 14.3293 12.8037 14.6334 12.2948 14.8372C11.786 15.0409 11.2413 15.1401 10.6933 15.1289ZM40.9067 41.2489H33.6933V28.7255C33.6933 25.0322 32.1233 23.8922 30.0967 23.8922C27.9567 23.8922 25.8567 25.5055 25.8567 28.8189V41.2489H18.64V18.3222H25.58V21.4989H25.6733C26.37 20.0889 28.81 17.6789 32.5333 17.6789C36.56 17.6789 40.91 20.0689 40.91 27.0689L40.9067 41.2489Z" fill="#1D1D1F" fill-opacity="0.72"/>
</svg>
